<svg xmlns="http://www.w3.org/2000/svg" xmlns:v="https://svgstorm.com"
viewBox = "0 0 527 205"
width="527"
height="205">
<g fill="None" fill-opacity="0.0" stroke="#000000" stroke-opacity="0.01" stroke-width="0.3"><path d="
M 0.00 205.00 
L 527.00 205.00
L 527.00 0.00
L 0.00 0.00
L 0.00 205.00
M 130.00 90.00 
C 124.00 81.54 116.10 67.54 104.00 63.00
C 113.21 72.85 115.88 76.87 123.30 88.70 C 130.73 100.52 114.14 104.34 106.25 94.75 C 98.35 85.16 95.61 79.43 88.25 69.75 C 80.88 60.07 67.28 59.46 56.00 61.00
C 79.17 39.11 136.71 50.55 130.00 90.00
M 72.00 64.00 
C 61.52 74.15 49.94 85.75 48.00 101.00
C 56.16 87.88 66.12 77.40 77.00 66.00
C 93.56 73.61 84.25 91.80 71.75 100.75 C 59.26 109.70 48.04 125.31 54.00 142.00
C 25.53 120.96 28.70 60.53 72.00 64.00
M 298.00 80.00 
C 298.00 88.67 298.00 97.33 298.00 106.00
C 303.28 103.69 306.37 97.68 309.00 93.00
C 312.67 93.00 316.33 93.00 320.00 93.00
C 315.82 97.80 312.15 102.90 307.00 107.00
C 309.89 113.68 316.36 118.60 320.00 125.00
C 316.66 125.32 312.93 124.16 310.00 126.00
C 308.26 124.69 306.79 114.44 301.92 115.08 C 297.05 115.72 299.16 130.62 290.00 125.00
C 290.00 110.00 290.00 95.00 290.00 80.00
C 292.67 80.00 295.33 80.00 298.00 80.00
M 123.00 122.00 
C 123.39 121.36 123.63 120.61 124.00 120.00
C 115.28 125.51 104.16 126.45 95.00 130.00
C 89.57 116.56 102.44 108.47 114.67 107.67 C 126.91 106.87 136.86 93.92 137.00 82.00
C 141.40 96.48 144.92 115.78 134.25 126.25 C 123.58 136.72 109.97 140.39 100.00 133.00
C 107.64 132.03 117.14 126.36 123.00 122.00
M 220.00 91.00 
C 221.08 96.77 224.43 102.53 228.00 107.00
C 229.29 102.18 232.30 97.96 233.00 93.00
C 236.00 93.00 239.00 93.00 242.00 93.00
C 237.80 104.75 232.38 114.61 229.00 126.00
C 225.77 121.50 223.11 116.20 221.00 111.00
C 213.54 111.52 215.31 123.98 209.00 126.00
C 207.79 114.85 199.93 103.35 197.00 93.00
C 200.00 93.00 203.00 93.00 206.00 93.00
C 206.08 97.70 210.26 101.15 210.00 106.00
C 216.47 103.28 215.89 95.86 220.00 91.00
M 192.00 96.00 
C 192.48 98.66 188.47 99.32 189.00 102.00
C 185.19 96.78 170.42 100.77 176.25 104.75 C 182.08 108.73 192.66 105.01 193.78 114.22 C 194.89 123.43 185.88 125.97 179.00 126.00 C 172.12 126.03 162.31 122.47 169.00 115.00
C 177.16 124.57 190.17 113.35 178.75 112.80 C 167.34 112.25 162.71 101.53 169.10 95.10 C 175.49 88.67 184.77 94.06 192.00 96.00
M 271.00 96.00 
C 271.92 91.58 277.31 93.30 281.00 93.00
C 281.00 104.00 281.00 115.00 281.00 126.00
C 277.63 123.70 272.01 126.90 271.00 122.00
C 261.50 132.11 246.19 122.63 246.00 109.00 C 245.81 95.37 259.73 86.67 271.00 96.00
M 350.00 96.00 
C 350.81 91.93 355.50 93.10 359.00 93.00
C 359.00 103.67 359.00 114.33 359.00 125.00
C 356.21 124.43 350.13 126.87 351.00 122.00
C 340.10 130.97 325.96 123.18 325.00 110.00 C 324.04 96.82 339.09 85.60 350.00 96.00
M 393.00 96.00 
C 393.81 91.93 398.50 93.10 402.00 93.00
C 402.00 103.67 402.00 114.33 402.00 125.00
C 399.21 124.43 393.13 126.87 394.00 122.00
C 383.08 131.87 367.70 122.14 367.07 108.93 C 366.44 95.71 382.99 86.30 393.00 96.00
M 439.00 97.00 
C 445.44 92.49 453.71 88.83 459.74 95.26 C 465.78 101.68 463.55 116.25 464.00 125.00
C 461.00 125.00 458.00 125.00 455.00 125.00
C 454.77 115.79 458.91 92.37 443.00 101.00
C 442.03 107.89 441.73 117.02 442.00 125.00
C 439.00 125.00 436.00 125.00 433.00 125.00
C 430.99 118.85 438.04 98.79 426.99 99.01 C 415.95 99.23 421.20 118.32 420.00 125.00
C 410.54 127.93 411.75 119.62 412.00 113.00 C 412.25 106.38 411.81 99.63 412.00 93.00
C 414.79 93.57 420.87 91.13 420.00 96.00
C 425.50 91.47 434.98 90.74 439.00 97.00
M 125.00 139.00 
C 107.64 159.91 58.13 163.65 60.00 128.00
C 65.77 138.09 76.48 142.92 87.00 146.00
C 78.49 141.11 69.63 132.65 61.00 126.00
C 60.00 122.22 63.76 121.09 65.00 118.00
C 76.46 117.43 83.76 124.66 91.25 133.75 C 98.73 142.84 114.52 141.96 125.00 139.00 Z"/>
</g>
<g fill="None" fill-opacity="0.0" stroke="#0F0F10" stroke-opacity="0.97" stroke-width="0.3"><path d="
M 130.00 90.00 
C 136.71 50.55 79.17 39.11 56.00 61.00
C 67.28 59.46 80.88 60.07 88.25 69.75 C 95.61 79.43 98.35 85.16 106.25 94.75 C 114.14 104.34 130.73 100.52 123.30 88.70 C 115.88 76.87 113.21 72.85 104.00 63.00
C 116.10 67.54 124.00 81.54 130.00 90.00 Z"/>
</g>
<g fill="None" fill-opacity="0.0" stroke="#0F1010" stroke-opacity="0.98" stroke-width="0.3"><path d="
M 72.00 64.00 
C 28.70 60.53 25.53 120.96 54.00 142.00
C 48.04 125.31 59.26 109.70 71.75 100.75 C 84.25 91.80 93.56 73.61 77.00 66.00
C 66.12 77.40 56.16 87.88 48.00 101.00
C 49.94 85.75 61.52 74.15 72.00 64.00 Z"/>
</g>
<g fill="None" fill-opacity="0.0" stroke="#0E0F10" stroke-opacity="0.98" stroke-width="0.3"><path d="
M 298.00 80.00 
C 295.33 80.00 292.67 80.00 290.00 80.00
C 290.00 95.00 290.00 110.00 290.00 125.00
C 299.16 130.62 297.05 115.72 301.92 115.08 C 306.79 114.44 308.26 124.69 310.00 126.00
C 312.93 124.16 316.66 125.32 320.00 125.00
C 316.36 118.60 309.89 113.68 307.00 107.00
C 312.15 102.90 315.82 97.80 320.00 93.00
C 316.33 93.00 312.67 93.00 309.00 93.00
C 306.37 97.68 303.28 103.69 298.00 106.00
C 298.00 97.33 298.00 88.67 298.00 80.00 Z"/>
</g>
<g fill="None" fill-opacity="0.0" stroke="#0E0F10" stroke-opacity="0.97" stroke-width="0.3"><path d="
M 124.00 120.00 
C 125.08 118.23 126.73 115.93 129.00 116.00
C 127.43 118.28 125.33 120.57 123.00 122.00
C 117.14 126.36 107.64 132.03 100.00 133.00
C 109.97 140.39 123.58 136.72 134.25 126.25 C 144.92 115.78 141.40 96.48 137.00 82.00
C 136.86 93.92 126.91 106.87 114.67 107.67 C 102.44 108.47 89.57 116.56 95.00 130.00
C 104.16 126.45 115.28 125.51 124.00 120.00 Z"/>
</g>
<g fill="None" fill-opacity="0.0" stroke="#0E0F0F" stroke-opacity="0.98" stroke-width="0.3"><path d="
M 220.00 91.00 
C 215.89 95.86 216.47 103.28 210.00 106.00
C 210.26 101.15 206.08 97.70 206.00 93.00
C 203.00 93.00 200.00 93.00 197.00 93.00
C 199.93 103.35 207.79 114.85 209.00 126.00
C 215.31 123.98 213.54 111.52 221.00 111.00
C 223.11 116.20 225.77 121.50 229.00 126.00
C 232.38 114.61 237.80 104.75 242.00 93.00
C 239.00 93.00 236.00 93.00 233.00 93.00
C 232.30 97.96 229.29 102.18 228.00 107.00
C 224.43 102.53 221.08 96.77 220.00 91.00 Z"/>
</g>
<g fill="None" fill-opacity="0.0" stroke="#0E0E0F" stroke-opacity="0.98" stroke-width="0.3"><path d="
M 192.00 96.00 
C 184.77 94.06 175.49 88.67 169.10 95.10 C 162.71 101.53 167.34 112.25 178.75 112.80 C 190.17 113.35 177.16 124.57 169.00 115.00
C 162.31 122.47 172.12 126.03 179.00 126.00 C 185.88 125.97 194.89 123.43 193.78 114.22 C 192.66 105.01 182.08 108.73 176.25 104.75 C 170.42 100.77 185.19 96.78 189.00 102.00
C 188.47 99.32 192.48 98.66 192.00 96.00 Z"/>
</g>
<g fill="None" fill-opacity="0.0" stroke="#0D0F10" stroke-opacity="0.97" stroke-width="0.3"><path d="
M 271.00 96.00 
C 259.73 86.67 245.81 95.37 246.00 109.00 C 246.19 122.63 261.50 132.11 271.00 122.00
C 272.01 126.90 277.63 123.70 281.00 126.00
C 281.00 115.00 281.00 104.00 281.00 93.00
C 277.31 93.30 271.92 91.58 271.00 96.00
M 267.00 100.00 
C 278.43 103.47 269.68 123.41 259.00 118.00 C 248.32 112.59 255.28 96.44 267.00 100.00 Z"/>
</g>
<g fill="None" fill-opacity="0.0" stroke="#0F0F10" stroke-opacity="0.99" stroke-width="0.3"><path d="
M 350.00 96.00 
C 339.09 85.60 324.04 96.82 325.00 110.00 C 325.96 123.18 340.10 130.97 351.00 122.00
C 350.13 126.87 356.21 124.43 359.00 125.00
C 359.00 114.33 359.00 103.67 359.00 93.00
C 355.50 93.10 350.81 91.93 350.00 96.00
M 343.00 99.00 
C 354.66 99.93 353.38 119.43 341.00 118.00 C 328.62 116.57 331.30 98.07 343.00 99.00 Z"/>
</g>
<g fill="None" fill-opacity="0.0" stroke="#0E0F10" stroke-opacity="0.98" stroke-width="0.3"><path d="
M 393.00 96.00 
C 382.99 86.30 366.44 95.71 367.07 108.93 C 367.70 122.14 383.08 131.87 394.00 122.00
C 393.13 126.87 399.21 124.43 402.00 125.00
C 402.00 114.33 402.00 103.67 402.00 93.00
C 398.50 93.10 393.81 91.93 393.00 96.00
M 386.00 99.00 
C 396.02 99.30 397.09 120.93 383.98 118.98 C 370.86 117.03 375.18 98.67 386.00 99.00 Z"/>
</g>
<g fill="None" fill-opacity="0.0" stroke="#0E0F10" stroke-opacity="0.98" stroke-width="0.3"><path d="
M 439.00 97.00 
C 434.98 90.74 425.50 91.47 420.00 96.00
C 420.87 91.13 414.79 93.57 412.00 93.00
C 411.81 99.63 412.25 106.38 412.00 113.00 C 411.75 119.62 410.54 127.93 420.00 125.00
C 421.20 118.32 415.95 99.23 426.99 99.01 C 438.04 98.79 430.99 118.85 433.00 125.00
C 436.00 125.00 439.00 125.00 442.00 125.00
C 441.73 117.02 442.03 107.89 443.00 101.00
C 458.91 92.37 454.77 115.79 455.00 125.00
C 458.00 125.00 461.00 125.00 464.00 125.00
C 463.55 116.25 465.78 101.68 459.74 95.26 C 453.71 88.83 445.44 92.49 439.00 97.00 Z"/>
</g>
<g fill="None" fill-opacity="0.0" stroke="#000000" stroke-opacity="0.07" stroke-width="0.3"><path d="
M 343.00 99.00 
C 331.30 98.07 328.62 116.57 341.00 118.00 C 353.38 119.43 354.66 99.93 343.00 99.00 Z"/>
</g>
<g fill="None" fill-opacity="0.0" stroke="#000000" stroke-opacity="0.07" stroke-width="0.3"><path d="
M 386.00 99.00 
C 375.18 98.67 370.86 117.03 383.98 118.98 C 397.09 120.93 396.02 99.30 386.00 99.00 Z"/>
</g>
<g fill="None" fill-opacity="0.0" stroke="#000000" stroke-opacity="0.05" stroke-width="0.3"><path d="
M 267.00 100.00 
C 255.28 96.44 248.32 112.59 259.00 118.00 C 269.68 123.41 278.43 103.47 267.00 100.00 Z"/>
</g>
<g fill="None" fill-opacity="0.0" stroke="#030407" stroke-opacity="0.40" stroke-width="0.3"><path d="
M 124.00 120.00 
C 123.63 120.61 123.39 121.36 123.00 122.00
C 125.33 120.57 127.43 118.28 129.00 116.00
C 126.73 115.93 125.08 118.23 124.00 120.00 Z"/>
</g>
<g fill="None" fill-opacity="0.0" stroke="#0F0F10" stroke-opacity="0.98" stroke-width="0.3"><path d="
M 125.00 139.00 
C 114.52 141.96 98.73 142.84 91.25 133.75 C 83.76 124.66 76.46 117.43 65.00 118.00
C 63.76 121.09 60.00 122.22 61.00 126.00
C 69.63 132.65 78.49 141.11 87.00 146.00
C 76.48 142.92 65.77 138.09 60.00 128.00
C 58.13 163.65 107.64 159.91 125.00 139.00 Z"/>
</g>
<g fill="#000000" fill-opacity="0.01" stroke="None">
<path d="
M 0.00 205.00 
L 527.00 205.00
L 527.00 0.00
L 0.00 0.00
L 0.00 205.00
M 130.00 90.00 
C 124.00 81.54 116.10 67.54 104.00 63.00
C 113.21 72.85 115.88 76.87 123.30 88.70 C 130.73 100.52 114.14 104.34 106.25 94.75 C 98.35 85.16 95.61 79.43 88.25 69.75 C 80.88 60.07 67.28 59.46 56.00 61.00
C 79.17 39.11 136.71 50.55 130.00 90.00
M 72.00 64.00 
C 61.52 74.15 49.94 85.75 48.00 101.00
C 56.16 87.88 66.12 77.40 77.00 66.00
C 93.56 73.61 84.25 91.80 71.75 100.75 C 59.26 109.70 48.04 125.31 54.00 142.00
C 25.53 120.96 28.70 60.53 72.00 64.00
M 298.00 80.00 
C 298.00 88.67 298.00 97.33 298.00 106.00
C 303.28 103.69 306.37 97.68 309.00 93.00
C 312.67 93.00 316.33 93.00 320.00 93.00
C 315.82 97.80 312.15 102.90 307.00 107.00
C 309.89 113.68 316.36 118.60 320.00 125.00
C 316.66 125.32 312.93 124.16 310.00 126.00
C 308.26 124.69 306.79 114.44 301.92 115.08 C 297.05 115.72 299.16 130.62 290.00 125.00
C 290.00 110.00 290.00 95.00 290.00 80.00
C 292.67 80.00 295.33 80.00 298.00 80.00
M 123.00 122.00 
C 123.39 121.36 123.63 120.61 124.00 120.00
C 115.28 125.51 104.16 126.45 95.00 130.00
C 89.57 116.56 102.44 108.47 114.67 107.67 C 126.91 106.87 136.86 93.92 137.00 82.00
C 141.40 96.48 144.92 115.78 134.25 126.25 C 123.58 136.72 109.97 140.39 100.00 133.00
C 107.64 132.03 117.14 126.36 123.00 122.00
M 220.00 91.00 
C 221.08 96.77 224.43 102.53 228.00 107.00
C 229.29 102.18 232.30 97.96 233.00 93.00
C 236.00 93.00 239.00 93.00 242.00 93.00
C 237.80 104.75 232.38 114.61 229.00 126.00
C 225.77 121.50 223.11 116.20 221.00 111.00
C 213.54 111.52 215.31 123.98 209.00 126.00
C 207.79 114.85 199.93 103.35 197.00 93.00
C 200.00 93.00 203.00 93.00 206.00 93.00
C 206.08 97.70 210.26 101.15 210.00 106.00
C 216.47 103.28 215.89 95.86 220.00 91.00
M 192.00 96.00 
C 192.48 98.66 188.47 99.32 189.00 102.00
C 185.19 96.78 170.42 100.77 176.25 104.75 C 182.08 108.73 192.66 105.01 193.78 114.22 C 194.89 123.43 185.88 125.97 179.00 126.00 C 172.12 126.03 162.31 122.47 169.00 115.00
C 177.16 124.57 190.17 113.35 178.75 112.80 C 167.34 112.25 162.71 101.53 169.10 95.10 C 175.49 88.67 184.77 94.06 192.00 96.00
M 271.00 96.00 
C 271.92 91.58 277.31 93.30 281.00 93.00
C 281.00 104.00 281.00 115.00 281.00 126.00
C 277.63 123.70 272.01 126.90 271.00 122.00
C 261.50 132.11 246.19 122.63 246.00 109.00 C 245.81 95.37 259.73 86.67 271.00 96.00
M 350.00 96.00 
C 350.81 91.93 355.50 93.10 359.00 93.00
C 359.00 103.67 359.00 114.33 359.00 125.00
C 356.21 124.43 350.13 126.87 351.00 122.00
C 340.10 130.97 325.96 123.18 325.00 110.00 C 324.04 96.82 339.09 85.60 350.00 96.00
M 393.00 96.00 
C 393.81 91.93 398.50 93.10 402.00 93.00
C 402.00 103.67 402.00 114.33 402.00 125.00
C 399.21 124.43 393.13 126.87 394.00 122.00
C 383.08 131.87 367.70 122.14 367.07 108.93 C 366.44 95.71 382.99 86.30 393.00 96.00
M 439.00 97.00 
C 445.44 92.49 453.71 88.83 459.74 95.26 C 465.78 101.68 463.55 116.25 464.00 125.00
C 461.00 125.00 458.00 125.00 455.00 125.00
C 454.77 115.79 458.91 92.37 443.00 101.00
C 442.03 107.89 441.73 117.02 442.00 125.00
C 439.00 125.00 436.00 125.00 433.00 125.00
C 430.99 118.85 438.04 98.79 426.99 99.01 C 415.95 99.23 421.20 118.32 420.00 125.00
C 410.54 127.93 411.75 119.62 412.00 113.00 C 412.25 106.38 411.81 99.63 412.00 93.00
C 414.79 93.57 420.87 91.13 420.00 96.00
C 425.50 91.47 434.98 90.74 439.00 97.00
M 125.00 139.00 
C 107.64 159.91 58.13 163.65 60.00 128.00
C 65.77 138.09 76.48 142.92 87.00 146.00
C 78.49 141.11 69.63 132.65 61.00 126.00
C 60.00 122.22 63.76 121.09 65.00 118.00
C 76.46 117.43 83.76 124.66 91.25 133.75 C 98.73 142.84 114.52 141.96 125.00 139.00 Z"/>
</g>
<g fill="#0F0F10" fill-opacity="0.97" stroke="None">
<path d="
M 130.00 90.00 
C 136.71 50.55 79.17 39.11 56.00 61.00
C 67.28 59.46 80.88 60.07 88.25 69.75 C 95.61 79.43 98.35 85.16 106.25 94.75 C 114.14 104.34 130.73 100.52 123.30 88.70 C 115.88 76.87 113.21 72.85 104.00 63.00
C 116.10 67.54 124.00 81.54 130.00 90.00 Z"/>
</g>
<g fill="#0F1010" fill-opacity="0.98" stroke="None">
<path d="
M 72.00 64.00 
C 28.70 60.53 25.53 120.96 54.00 142.00
C 48.04 125.31 59.26 109.70 71.75 100.75 C 84.25 91.80 93.56 73.61 77.00 66.00
C 66.12 77.40 56.16 87.88 48.00 101.00
C 49.94 85.75 61.52 74.15 72.00 64.00 Z"/>
</g>
<g fill="#0E0F10" fill-opacity="0.98" stroke="None">
<path d="
M 298.00 80.00 
C 295.33 80.00 292.67 80.00 290.00 80.00
C 290.00 95.00 290.00 110.00 290.00 125.00
C 299.16 130.62 297.05 115.72 301.92 115.08 C 306.79 114.44 308.26 124.69 310.00 126.00
C 312.93 124.16 316.66 125.32 320.00 125.00
C 316.36 118.60 309.89 113.68 307.00 107.00
C 312.15 102.90 315.82 97.80 320.00 93.00
C 316.33 93.00 312.67 93.00 309.00 93.00
C 306.37 97.68 303.28 103.69 298.00 106.00
C 298.00 97.33 298.00 88.67 298.00 80.00 Z"/>
</g>
<g fill="#0E0F10" fill-opacity="0.97" stroke="None">
<path d="
M 124.00 120.00 
C 125.08 118.23 126.73 115.93 129.00 116.00
C 127.43 118.28 125.33 120.57 123.00 122.00
C 117.14 126.36 107.64 132.03 100.00 133.00
C 109.97 140.39 123.58 136.72 134.25 126.25 C 144.92 115.78 141.40 96.48 137.00 82.00
C 136.86 93.92 126.91 106.87 114.67 107.67 C 102.44 108.47 89.57 116.56 95.00 130.00
C 104.16 126.45 115.28 125.51 124.00 120.00 Z"/>
</g>
<g fill="#0E0F0F" fill-opacity="0.98" stroke="None">
<path d="
M 220.00 91.00 
C 215.89 95.86 216.47 103.28 210.00 106.00
C 210.26 101.15 206.08 97.70 206.00 93.00
C 203.00 93.00 200.00 93.00 197.00 93.00
C 199.93 103.35 207.79 114.85 209.00 126.00
C 215.31 123.98 213.54 111.52 221.00 111.00
C 223.11 116.20 225.77 121.50 229.00 126.00
C 232.38 114.61 237.80 104.75 242.00 93.00
C 239.00 93.00 236.00 93.00 233.00 93.00
C 232.30 97.96 229.29 102.18 228.00 107.00
C 224.43 102.53 221.08 96.77 220.00 91.00 Z"/>
</g>
<g fill="#0E0E0F" fill-opacity="0.98" stroke="None">
<path d="
M 192.00 96.00 
C 184.77 94.06 175.49 88.67 169.10 95.10 C 162.71 101.53 167.34 112.25 178.75 112.80 C 190.17 113.35 177.16 124.57 169.00 115.00
C 162.31 122.47 172.12 126.03 179.00 126.00 C 185.88 125.97 194.89 123.43 193.78 114.22 C 192.66 105.01 182.08 108.73 176.25 104.75 C 170.42 100.77 185.19 96.78 189.00 102.00
C 188.47 99.32 192.48 98.66 192.00 96.00 Z"/>
</g>
<g fill="#0D0F10" fill-opacity="0.97" stroke="None">
<path d="
M 271.00 96.00 
C 259.73 86.67 245.81 95.37 246.00 109.00 C 246.19 122.63 261.50 132.11 271.00 122.00
C 272.01 126.90 277.63 123.70 281.00 126.00
C 281.00 115.00 281.00 104.00 281.00 93.00
C 277.31 93.30 271.92 91.58 271.00 96.00
M 267.00 100.00 
C 278.43 103.47 269.68 123.41 259.00 118.00 C 248.32 112.59 255.28 96.44 267.00 100.00 Z"/>
</g>
<g fill="#0F0F10" fill-opacity="0.99" stroke="None">
<path d="
M 350.00 96.00 
C 339.09 85.60 324.04 96.82 325.00 110.00 C 325.96 123.18 340.10 130.97 351.00 122.00
C 350.13 126.87 356.21 124.43 359.00 125.00
C 359.00 114.33 359.00 103.67 359.00 93.00
C 355.50 93.10 350.81 91.93 350.00 96.00
M 343.00 99.00 
C 354.66 99.93 353.38 119.43 341.00 118.00 C 328.62 116.57 331.30 98.07 343.00 99.00 Z"/>
</g>
<g fill="#0E0F10" fill-opacity="0.98" stroke="None">
<path d="
M 393.00 96.00 
C 382.99 86.30 366.44 95.71 367.07 108.93 C 367.70 122.14 383.08 131.87 394.00 122.00
C 393.13 126.87 399.21 124.43 402.00 125.00
C 402.00 114.33 402.00 103.67 402.00 93.00
C 398.50 93.10 393.81 91.93 393.00 96.00
M 386.00 99.00 
C 396.02 99.30 397.09 120.93 383.98 118.98 C 370.86 117.03 375.18 98.67 386.00 99.00 Z"/>
</g>
<g fill="#0E0F10" fill-opacity="0.98" stroke="None">
<path d="
M 439.00 97.00 
C 434.98 90.74 425.50 91.47 420.00 96.00
C 420.87 91.13 414.79 93.57 412.00 93.00
C 411.81 99.63 412.25 106.38 412.00 113.00 C 411.75 119.62 410.54 127.93 420.00 125.00
C 421.20 118.32 415.95 99.23 426.99 99.01 C 438.04 98.79 430.99 118.85 433.00 125.00
C 436.00 125.00 439.00 125.00 442.00 125.00
C 441.73 117.02 442.03 107.89 443.00 101.00
C 458.91 92.37 454.77 115.79 455.00 125.00
C 458.00 125.00 461.00 125.00 464.00 125.00
C 463.55 116.25 465.78 101.68 459.74 95.26 C 453.71 88.83 445.44 92.49 439.00 97.00 Z"/>
</g>
<g fill="#000000" fill-opacity="0.07" stroke="None">
<path d="
M 343.00 99.00 
C 331.30 98.07 328.62 116.57 341.00 118.00 C 353.38 119.43 354.66 99.93 343.00 99.00 Z"/>
</g>
<g fill="#000000" fill-opacity="0.07" stroke="None">
<path d="
M 386.00 99.00 
C 375.18 98.67 370.86 117.03 383.98 118.98 C 397.09 120.93 396.02 99.30 386.00 99.00 Z"/>
</g>
<g fill="#000000" fill-opacity="0.05" stroke="None">
<path d="
M 267.00 100.00 
C 255.28 96.44 248.32 112.59 259.00 118.00 C 269.68 123.41 278.43 103.47 267.00 100.00 Z"/>
</g>
<g fill="#030407" fill-opacity="0.40" stroke="None">
<path d="
M 124.00 120.00 
C 123.63 120.61 123.39 121.36 123.00 122.00
C 125.33 120.57 127.43 118.28 129.00 116.00
C 126.73 115.93 125.08 118.23 124.00 120.00 Z"/>
</g>
<g fill="#0F0F10" fill-opacity="0.98" stroke="None">
<path d="
M 125.00 139.00 
C 114.52 141.96 98.73 142.84 91.25 133.75 C 83.76 124.66 76.46 117.43 65.00 118.00
C 63.76 121.09 60.00 122.22 61.00 126.00
C 69.63 132.65 78.49 141.11 87.00 146.00
C 76.48 142.92 65.77 138.09 60.00 128.00
C 58.13 163.65 107.64 159.91 125.00 139.00 Z"/>
</g>
</svg>